<?xml version="1.0" encoding="UTF-8"?><svg xmlns="http://www.w3.org/2000/svg" xmlns:xlink="http://www.w3.org/1999/xlink" height="311.5" preserveAspectRatio="xMidYMid meet" version="1.0" viewBox="0.0 -5.5 499.5 311.5" width="499.5" zoomAndPan="magnify"><defs><clipPath id="a"><path d="M 0 5 L 499.488281 5 L 499.488281 305.980469 L 0 305.980469 Z M 0 5"/></clipPath></defs><g><g clip-path="url(#a)" id="change1_1"><path d="M 318.691406 25.929688 C 319.632812 24.117188 320.890625 22.898438 321.496094 23.199219 C 322.105469 23.5 321.839844 25.214844 320.898438 27.023438 C 319.957031 28.835938 318.699219 30.058594 318.09375 29.757812 C 317.484375 29.453125 317.753906 27.742188 318.691406 25.929688 Z M 340.851562 16.296875 C 341.890625 16.199219 342.878906 17.648438 343.0625 19.53125 C 343.246094 21.414062 342.558594 23.019531 341.519531 23.117188 C 340.484375 23.214844 339.496094 21.765625 339.3125 19.882812 C 339.128906 18 339.816406 16.394531 340.851562 16.296875 Z M 356.183594 41.914062 C 357.074219 26.617188 352.269531 14.238281 342.523438 10.394531 C 331.199219 5.933594 316.515625 14.296875 305.566406 29.9375 C 253.644531 17.101562 213.019531 5.523438 213.019531 5.523438 C 183.226562 84.792969 0 177.398438 0 177.398438 C 32.136719 248.335938 209.347656 304.011719 214.855469 304.910156 C 336.183594 324.6875 499.496094 63.761719 499.496094 63.761719 C 467.75 64.703125 410.910156 54.230469 356.183594 41.914062" fill="#aac546"/></g><g id="change2_1"><path d="M 307.289062 199.847656 C 307.289062 199.847656 306.816406 205.542969 316.035156 199.847656 C 316.035156 199.847656 331.734375 204.835938 335.699219 199.847656 C 335.699219 199.847656 351.90625 199.515625 354.789062 196.304688 C 354.789062 196.304688 367.851562 188.550781 361.320312 180.078125 C 361.320312 180.078125 354.914062 168.378906 347.105469 169.992188 C 347.105469 169.992188 336.632812 163.929688 330.363281 173.054688 C 330.363281 173.054688 321.789062 169.164062 315.398438 179.355469 C 315.398438 179.355469 304.003906 180.0625 301.121094 187.460938 C 301.121094 187.460938 296.105469 188.441406 293.558594 193.09375 C 293.558594 193.09375 289.152344 193.566406 290.8125 199.847656 C 292.476562 206.128906 307.289062 199.847656 307.289062 199.847656 Z M 235.097656 196.0625 C 235.097656 196.0625 230.757812 224.84375 221.929688 229.550781 C 213.105469 234.261719 134.085938 227.984375 110.417969 208.761719 C 86.75 189.539062 91.832031 177.1875 98.382812 167.960938 C 104.9375 158.734375 132.078125 134.316406 133.683594 133.683594 C 135.289062 133.046875 140.214844 136.507812 140.214844 136.507812 L 137.015625 141.707031 C 137.015625 141.707031 140.132812 141.859375 139.632812 148.933594 C 139.632812 148.933594 146.328125 150.320312 145.5 156.867188 C 147.695312 158.796875 150.40625 160.308594 153.738281 160.898438 C 156.203125 161.339844 159.128906 161.886719 162.304688 162.539062 C 165.15625 161.894531 168.394531 161.425781 171.5 161.425781 C 177.917969 161.425781 180.90625 167.179688 180.90625 167.179688 C 180.90625 167.179688 188.414062 163.304688 193.519531 171.0625 C 193.519531 171.0625 198.804688 170.035156 203.671875 179.277344 C 203.671875 179.277344 210.71875 182.761719 213.488281 183.414062 C 216.261719 184.066406 224.660156 181.65625 227.828125 186.371094 C 229.378906 186.800781 230.550781 187.300781 231.15625 187.96875 C 234.367188 191.5 235.097656 196.0625 235.097656 196.0625" fill="#8e3a27"/></g><g id="change3_1"><path d="M 124.753906 202.1875 C 124.824219 202.558594 124.929688 202.917969 125.019531 203.28125 C 104.996094 197.945312 86.738281 193.460938 86.777344 194.871094 C 87.433594 220.960938 128.457031 240.285156 148.929688 241.085938 C 156.027344 241.359375 161.472656 238.605469 165.558594 234.894531 C 176.027344 237.824219 186.371094 238.910156 193.6875 238.039062 C 214.027344 235.609375 216.671875 210.460938 216.671875 210.460938 C 216.671875 210.460938 124.160156 199.121094 124.753906 202.1875 Z M 364.414062 177.882812 C 363.5 178.71875 362.453125 179.4375 361.316406 180.070312 C 361.203125 179.863281 354.84375 168.394531 347.105469 169.992188 C 347.105469 169.992188 336.632812 163.929688 330.363281 173.054688 C 330.363281 173.054688 321.789062 169.164062 315.398438 179.355469 C 315.398438 179.355469 304.003906 180.0625 301.121094 187.460938 C 301.121094 187.460938 297.484375 188.183594 294.832031 191.269531 C 293.703125 191.203125 293.066406 191.105469 293.066406 191.105469 C 281.019531 196.175781 256.109375 191.105469 256.109375 191.105469 C 248.949219 196.039062 241.382812 196.792969 235.097656 196.0625 C 235.097656 196.0625 234.367188 191.5 231.15625 187.96875 C 230.550781 187.300781 229.378906 186.800781 227.828125 186.371094 C 224.660156 181.65625 216.261719 184.066406 213.488281 183.414062 C 210.71875 182.761719 203.671875 179.277344 203.671875 179.277344 C 198.804688 170.035156 193.519531 171.0625 193.519531 171.0625 C 188.414062 163.304688 180.90625 167.179688 180.90625 167.179688 C 180.90625 167.179688 177.917969 161.425781 171.5 161.425781 C 168.394531 161.425781 165.15625 161.894531 162.304688 162.539062 C 159.128906 161.886719 156.203125 161.339844 153.738281 160.898438 C 150.40625 160.308594 147.695312 158.796875 145.5 156.867188 C 146.328125 150.320312 139.632812 148.933594 139.632812 148.933594 C 140.128906 141.878906 137.035156 141.710938 137.015625 141.707031 C 137.019531 141.699219 137.023438 141.695312 137.027344 141.6875 L 140.214844 136.507812 C 142.625 133.070312 144.808594 130.757812 144.808594 130.757812 C 146.910156 113.820312 161.996094 108.25 161.996094 108.25 C 166.191406 90.125 173.554688 93.75 173.554688 93.75 C 175.40625 81.96875 195.109375 82.351562 195.109375 82.351562 C 202.992188 72.007812 209.460938 77.296875 209.460938 77.296875 C 234.308594 62.253906 244.660156 79.148438 244.660156 79.148438 C 244.660156 79.148438 271.578125 73.390625 279.34375 83.007812 C 279.34375 83.007812 291.007812 75.734375 306.117188 78.164062 C 308.960938 78.746094 310.671875 79.148438 310.671875 79.148438 C 313.40625 79.933594 314.910156 79.6875 315.390625 78.757812 C 336.503906 79.027344 335.765625 109.351562 335.765625 109.351562 C 358.078125 109.691406 357.941406 147.039062 357.941406 147.039062 C 369.996094 156.976562 364.414062 177.882812 364.414062 177.882812" fill="#e7e7e6"/></g><g id="change4_1"><path d="M 154.421875 203.539062 C 154.480469 204.328125 154.566406 205.121094 154.699219 205.917969 C 155.050781 208.019531 155.652344 210.023438 156.464844 211.902344 C 157.015625 212.058594 129.757812 204.476562 115.839844 200.863281 C 115.765625 201.652344 115.722656 202.449219 115.722656 203.257812 C 115.722656 217.710938 127.703125 229.429688 142.484375 229.429688 C 153.054688 229.429688 162.1875 223.4375 166.539062 214.738281 C 172.429688 216.40625 176.140625 217.476562 176.140625 217.476562 C 176.140625 217.476562 175 221.601562 172.234375 226.40625 C 176.328125 227.820312 180.828125 228.277344 185.414062 227.546875 C 195.847656 225.886719 203.878906 218.539062 206.742188 209.269531 C 194.308594 207.796875 172.445312 205.273438 154.421875 203.539062" fill="#e99a41"/></g><g id="change5_1"><path d="M 293.558594 193.09375 C 293.933594 192.40625 294.371094 191.804688 294.832031 191.269531 C 293.703125 191.203125 293.066406 191.105469 293.066406 191.105469 C 289.488281 192.613281 284.769531 193.222656 279.910156 193.335938 C 283.546875 194.832031 287.050781 196.21875 290.453125 197.527344 C 290.320312 193.453125 293.558594 193.09375 293.558594 193.09375 Z M 326.71875 201.976562 C 321.445312 201.5625 316.035156 199.847656 316.035156 199.847656 C 306.816406 205.542969 307.289062 199.847656 307.289062 199.847656 C 307.289062 199.847656 304.8125 200.898438 301.769531 201.710938 C 350.003906 218.757812 371.535156 216.269531 371.535156 216.269531 C 362.585938 215 346.40625 209.589844 326.71875 201.976562 Z M 411.144531 72.398438 C 409.972656 73.902344 409.691406 75.621094 410.519531 76.242188 C 411.347656 76.855469 412.96875 76.136719 414.140625 74.632812 C 415.316406 73.128906 415.59375 71.410156 414.765625 70.792969 C 413.9375 70.175781 412.316406 70.894531 411.144531 72.398438 Z M 391.8125 63.140625 C 389.863281 63.847656 388.476562 64.925781 388.714844 65.550781 C 388.949219 66.175781 390.722656 66.113281 392.671875 65.410156 C 394.617188 64.703125 396.003906 63.625 395.765625 63 C 395.53125 62.375 393.761719 62.4375 391.8125 63.140625 Z M 390.347656 76.589844 C 388.96875 75.34375 387.507812 74.691406 387.082031 75.140625 C 386.65625 75.589844 387.433594 76.964844 388.8125 78.214844 C 390.191406 79.464844 391.652344 80.113281 392.078125 79.664062 C 392.503906 79.214844 391.726562 77.839844 390.347656 76.589844 Z M 345.910156 90.976562 C 344.804688 92.835938 344.441406 94.644531 345.101562 95.019531 C 345.761719 95.398438 347.195312 94.195312 348.300781 92.339844 C 349.410156 90.484375 349.769531 88.671875 349.113281 88.296875 C 348.453125 87.921875 347.019531 89.121094 345.910156 90.976562 Z M 366.582031 102.382812 C 365.367188 101.6875 363.980469 101.800781 363.484375 102.632812 C 362.988281 103.464844 363.570312 104.703125 364.785156 105.394531 C 366 106.089844 367.386719 105.976562 367.882812 105.144531 C 368.378906 104.3125 367.796875 103.074219 366.582031 102.382812 Z M 389.261719 93.539062 C 388.894531 93.621094 388.902344 95.046875 389.285156 96.726562 C 389.664062 98.402344 390.273438 99.699219 390.640625 99.617188 C 391.011719 99.539062 391 98.113281 390.621094 96.433594 C 390.238281 94.757812 389.632812 93.460938 389.261719 93.539062 Z M 365.941406 85.734375 C 364.691406 87.058594 363.882812 88.320312 364.140625 88.554688 C 364.398438 88.789062 365.625 87.90625 366.878906 86.582031 C 368.132812 85.257812 368.9375 83.996094 368.679688 83.761719 C 368.421875 83.527344 367.195312 84.410156 365.941406 85.734375 Z M 370.480469 68.382812 C 368.648438 68.148438 367.074219 68.652344 366.960938 69.503906 C 366.847656 70.359375 368.242188 71.238281 370.070312 71.46875 C 371.902344 71.699219 373.480469 71.195312 373.59375 70.34375 C 373.703125 69.492188 372.3125 68.613281 370.480469 68.382812 Z M 329.097656 140.1875 C 324.847656 152.996094 314.164062 150.140625 314.164062 150.140625 C 330.910156 158.261719 329.097656 140.1875 329.097656 140.1875 Z M 291.054688 97.613281 C 287.5 112.136719 273.285156 114.933594 274.546875 115.109375 C 278.414062 115.652344 281.371094 115.03125 283.640625 113.757812 C 281.453125 126.769531 270.339844 129.707031 270.339844 129.707031 C 288.964844 127.1875 287.335938 117.335938 285.363281 112.574219 C 291.285156 107.609375 291.054688 97.613281 291.054688 97.613281 Z M 246.515625 96.296875 C 239.21875 98.527344 231.171875 92.054688 231.171875 92.054688 C 235.847656 101.203125 246.515625 96.296875 246.515625 96.296875 Z M 214.515625 105.097656 C 212.734375 108.796875 211.992188 111.886719 211.910156 114.460938 C 201.941406 112.21875 203.957031 97.785156 203.957031 97.785156 C 196.835938 115.871094 208.054688 115.515625 211.910156 114.914062 C 211.914062 123.574219 219.570312 126.09375 219.570312 126.09375 C 209.839844 116.578125 215.054688 103.980469 214.515625 105.097656 Z M 174.953125 114.640625 C 173.457031 121.410156 163.140625 126.339844 164.007812 126.351562 C 178.132812 126.535156 174.953125 114.640625 174.953125 114.640625 Z M 192.433594 158.800781 C 189.566406 157.71875 188.769531 154.105469 188.179688 152.617188 C 189.949219 149.636719 190.320312 146.40625 190.320312 146.40625 C 189.117188 149.933594 186.332031 152.546875 183.84375 154.351562 C 180.902344 156.484375 178.378906 157.484375 179.382812 157.527344 C 181.925781 157.640625 183.878906 156.914062 185.390625 155.792969 C 187.273438 157.558594 190.355469 158.410156 192.433594 158.800781 Z M 192.433594 158.800781 C 193.058594 159.035156 193.765625 159.164062 194.605469 159.113281 C 194.605469 159.113281 193.703125 159.039062 192.433594 158.800781 Z M 265.636719 174.261719 C 256.011719 183.363281 242.261719 169.5625 243.328125 171.199219 C 256.449219 191.363281 265.636719 174.261719 265.636719 174.261719 Z M 428.683594 82.902344 C 428.480469 83.40625 428.257812 83.910156 428.023438 84.410156 C 431.445312 76.953125 432.019531 69.644531 429.027344 63.445312 C 420.925781 46.65625 389.808594 44.378906 359.527344 58.359375 C 359.375 58.429688 359.230469 58.5 359.082031 58.570312 C 359.082031 58.570312 359.085938 58.570312 359.085938 58.570312 C 366.816406 31.980469 361.804688 7.574219 346.21875 1.433594 C 328.609375 -5.507812 304.191406 13.492188 291.675781 43.867188 C 286.382812 56.710938 284.078125 69.527344 284.496094 80.574219 C 286.277344 79.886719 288.46875 79.179688 290.976562 78.636719 C 290.242188 68.957031 292.117188 57.449219 296.871094 45.914062 C 307.347656 20.488281 327.785156 4.589844 342.523438 10.394531 C 356.339844 15.839844 360.238281 38.429688 352.042969 62.179688 C 341.429688 68.121094 332.742188 75.394531 326.730469 82.964844 C 328.539062 84.570312 329.996094 86.515625 331.152344 88.628906 C 336.890625 79.1875 347.804688 69.828125 361.917969 63.3125 C 387.265625 51.613281 413.308594 53.519531 420.089844 67.570312 C 426.875 81.621094 411.824219 102.5 386.476562 114.199219 C 374.730469 119.621094 362.839844 122.117188 352.777344 121.839844 C 353.742188 123.871094 354.53125 126.007812 355.167969 128.148438 C 364.023438 127.558594 373.742188 125.347656 383.519531 121.449219 C 397.765625 124.910156 410.253906 127.351562 420.121094 129.117188 C 410.058594 126.671875 398.816406 123.492188 387.140625 119.925781 C 387.71875 119.671875 388.292969 119.421875 388.867188 119.15625 C 407.261719 110.664062 421.101562 98.128906 427.328125 85.835938 C 448.164062 89.421875 460.785156 89.320312 460.785156 89.320312 C 451.203125 88.101562 440.234375 85.824219 428.683594 82.902344 Z M 107.144531 158.082031 C 96.492188 152.441406 90.179688 148.933594 90.179688 148.933594 C 95.511719 152.550781 100.746094 156.015625 105.90625 159.355469 C 106.3125 158.933594 106.722656 158.511719 107.144531 158.082031 Z M 230.296875 215.953125 C 229.59375 218.011719 228.808594 220.007812 227.949219 221.828125 C 293.222656 245.371094 327.550781 239.683594 327.550781 239.683594 C 305.183594 242.027344 268.351562 231.027344 230.296875 215.953125 Z M 157.65625 239.753906 C 155.070312 240.699219 152.175781 241.210938 148.929688 241.085938 C 147.75 241.039062 146.503906 240.929688 145.199219 240.761719 C 220.917969 280.074219 275.777344 279.472656 275.777344 279.472656 C 237.972656 275.773438 195.8125 259.199219 157.65625 239.753906 Z M 87.171875 198.726562 C 57.929688 179.703125 38.863281 164.875 38.863281 164.875 C 56.199219 180.960938 73.285156 194.78125 89.863281 206.667969 C 88.582031 204.117188 87.660156 201.464844 87.171875 198.726562 Z M 365.316406 161.390625 C 365.617188 163.441406 365.722656 165.464844 365.703125 167.355469 C 393.539062 174.5625 410.621094 177.179688 410.621094 177.179688 C 407.050781 175.984375 389.203125 169.757812 365.316406 161.390625 Z M 316.035156 62.964844 C 315.683594 62.964844 315.398438 61.5 315.398438 59.695312 C 315.398438 57.894531 315.683594 56.429688 316.035156 56.429688 C 316.386719 56.429688 316.671875 57.894531 316.671875 59.695312 C 316.671875 61.5 316.386719 62.964844 316.035156 62.964844 Z M 318.691406 25.929688 C 319.632812 24.117188 320.890625 22.898438 321.496094 23.199219 C 322.105469 23.5 321.839844 25.214844 320.898438 27.023438 C 319.957031 28.835938 318.699219 30.058594 318.09375 29.757812 C 317.484375 29.453125 317.753906 27.742188 318.691406 25.929688 Z M 326.960938 36.773438 C 328.839844 36.773438 330.363281 37.269531 330.363281 37.878906 C 330.363281 38.492188 328.839844 38.988281 326.960938 38.988281 C 325.078125 38.988281 323.554688 38.492188 323.554688 37.878906 C 323.554688 37.269531 325.078125 36.773438 326.960938 36.773438 Z M 328.203125 74.894531 C 326.828125 75.195312 325.542969 74.675781 325.328125 73.734375 C 325.113281 72.792969 326.054688 71.789062 327.429688 71.488281 C 328.800781 71.191406 330.089844 71.710938 330.300781 72.652344 C 330.515625 73.59375 329.574219 74.597656 328.203125 74.894531 Z M 308.519531 46.484375 C 307.015625 47.53125 305.382812 47.808594 304.875 47.109375 C 304.363281 46.40625 305.171875 44.992188 306.675781 43.945312 C 308.179688 42.898438 309.8125 42.617188 310.324219 43.320312 C 310.832031 44.019531 310.023438 45.4375 308.519531 46.484375 Z M 306.550781 80.355469 C 305.808594 80.519531 304.816406 78.949219 304.339844 76.851562 C 303.859375 74.75 304.078125 72.917969 304.824219 72.757812 C 305.570312 72.59375 306.558594 74.164062 307.039062 76.261719 C 307.515625 78.359375 307.296875 80.195312 306.550781 80.355469 Z M 337.933594 49.933594 C 338.148438 49.632812 339.496094 50.179688 340.941406 51.15625 C 342.386719 52.136719 343.382812 53.175781 343.167969 53.480469 C 342.953125 53.785156 341.605469 53.234375 340.160156 52.257812 C 338.714844 51.277344 337.71875 50.238281 337.933594 49.933594 Z M 340.851562 16.296875 C 341.890625 16.199219 342.878906 17.648438 343.0625 19.53125 C 343.246094 21.414062 342.558594 23.019531 341.519531 23.117188 C 340.484375 23.214844 339.496094 21.765625 339.3125 19.882812 C 339.128906 18 339.816406 16.394531 340.851562 16.296875" fill="#93b639"/></g></g></svg>